# xmcd
#
# Track frame offsets:
# 150
# 20479
# 36603
# 58939
# 80632
# 97899
# 118407
# 131789
# 145480
# 158242
# 171746
# 184308
# 199311
# 213273
# 231456
# 246503
# 264284
# 282708
#
# Disc length: 4036 seconds
#
#
# Revision: 0
# Processed by: cddbd v1.5.1PL2 Copyright (c) Steve Scherf et al.
# Submitted via: FreeRIP 2.942 
#
DISCID=2e0fc212
DTITLE=Elkie Brooks - No More The Fool The Collection - Disc One
DYEAR=2005
DGENRE=Pop
TTITLE0=Only Women Bleed
TTITLE1=Keep It A Secret
TTITLE2=No More The Fool
TTITLE3=Only Love Will Set You Free
TTITLE4=When The Hero Walks Alone
TTITLE5=All Or Nothing
TTITLE6='Round Midnight
TTITLE7=Cry Me A River
TTITLE8=Since I Fell For You
TTITLE9=Nobody But You
TTITLE10=I'd Rather Go Blind
TTITLE11=Don't Explain
TTITLE12=Tell Me More And More And Then Some
TTITLE13=Can't Wait All Night
TTITLE14=Kiss Me For The Last Time
TTITLE15=Love Is Love
TTITLE16=Sail On
TTITLE17=I Can Dream Can't I
EXTD=2005
EXTT0=
EXTT1=
EXTT2=
EXTT3=
EXTT4=
EXTT5=
EXTT6=
EXTT7=
EXTT8=
EXTT9=
EXTT10=
EXTT11=
EXTT12=
EXTT13=
EXTT14=
EXTT15=
EXTT16=
EXTT17=
PLAYORDER=
